<svg width="170" height="28" xmlns="http://www.w3.org/2000/svg"><path d="M15.148.6c1.05-.472 2.852.822 3.617 1.415.305.236.985.988.45 1.322-.293.183-.698-.038-.965-.176-.775-.397-2.708-1.025-3.287-1.528-.372-.324-.252-.837.185-1.033zm87.7 1.286c1.027-.366 1.338.565 1.708 1.293.904 1.78.728 3.44.4 5.355-.05.3-.53 1.85-.38 2 .353.35 2.446-.315 2.948-.368 2.004-.21 5.616-.205 7.287 1.065 1.107.842 2.536 2.69.722 3.671-1.229.665-.942-1.152-1.19-1.549-.318-.512-.978-.758-1.495-1.01-2.552-1.25-5.79-.82-8.456-.125-.776.202-2.201 2.213-3.147 1.316-.83-.788.817-2.007 1.203-2.649 1.129-1.876 1.42-4.507.83-6.598-.163-.576-1.308-2.088-.43-2.401zm13.539 4.062c.328-.408.066-1.047.504-1.388 1.18-.918 2.16 1.819 2.45 2.496-1.024.729-2.255-.404-2.954-1.108zm-59.09 5.725c-.78-1.082-3.457.407-2.805 1.66.49.943 1.636.992 2.529 1.28 2.936.948 7.031-.02 9.568-1.643.798-.51.384-1.895 1.788-2.166 3.323-.64-.998 4.097 2.216 3.752 3.48-.375 6.629-2.62 9.787-3.869.948-.375 1.633.757 2.157.54 2.588-1.067 4.448-3.03 7.537-2.251 1.58.398 4.411 2.558 3.792 4.523-.661 2.097-4 2.726-5.823 2.144.542-.411-.836-.969.045-1.486.33-.194.645.297.965.328.752.074 2.991-.394 3.216-1.254.34-1.296-1.3-2.26-2.195-2.7-2.317-1.137-5.772.901-7.479 2.522-2.284 2.17-4.019 7.015-4.831 9.976a17.138 17.138 0 0 0-.55 3.231c-.024.295.045 1.07-.2 1.256-2.22 1.68-1.99-2.685-1.99-3.84 0-.478-.155-1.306.462-1.386-.564-1.115 1.39-5.53 2.585-5.909-.124-1.242 1.954-2.442 2.216-3.785-3.024.565-5.613 2.693-8.684 3.277-1.008.192-2.102.405-3.04-.157-.495-.297-.89-1.393-1.454-1.42-.786-.039-1.9.765-2.61 1.067-1.122.478-2.307.65-3.508.761-2.446.226-7.366.393-8.4-2.512-1.04-2.924 4.817-4.993 6.477-2.97.784.956-1.605 2.195-2.324 2.139l.184-1.2.37.092zM9.75 10.44c3.246-.7 3.606 2.88 6.279 3.886.93.35 2.957-.228 3.596.62.42.557-.5.945-.919 1.086-2.22.749-4.489-.298-6.044-1.91-.77-.799-1.107-2.229-2.358-2.335-3.375-.288-5.913 4.787-9.507 4.06-.565-.115-.768-.802-.24-1.154.912-.607 2.718-.672 3.825-1.24 1.848-.947 3.23-2.551 5.368-3.013zm27.237.441c1.727-.193 2.192 1.889 3.641 2.497 1.358.57 2.834-.086 4.203.083.341.042.91.501.509.825-1.377 1.107-5.173 1.3-6.592.259-.826-.606-1.358-2.448-2.5-2.395-2.455.114-5.43 1.793-7.755 2.578-.998.336-2.326.935-3.403.55-.937-.336-.286-3.662.386-3.817 2.154-.497.53 2.558 1.362 2.556 1.474-.002 3.325-1.21 4.63-1.781 1.723-.755 3.66-1.147 5.519-1.355zm100.174.105c1.864-.158.408 1.644.806 2.182.659.89 2.659 1.613 3.719 1.852 2.204.496 4.505.236 6.74.363 4.876.276 9.71.343 14.587.832 1.98.199 3.954-.024 5.909.158.52.048 1.504.56.794 1.112-2.076 1.619-5.669.437-7.996.202-6.856-.695-14.124.096-20.845-1.092-1.055-.186-2.397-.923-3.303-1.484-.408-.252-1.035-.917-1.548-.847-.848.115-1.487 1.142-2.208 1.526-2.235 1.192-7.95 3.268-10.036.998-2.936-3.194 2.295-5.2 4.887-5.107.771.027 2.312.303 2.537 1.19.151.598-.552.945-1.06.884-1.322-.157-4.543-.903-5.328.982-.755 1.812 2.437 1.302 3.205 1.284 2.317-.055 5.002-1.478 6.79-2.879.993-.78.776-2.023 2.35-2.156z" fill="#FFF" fill-rule="nonzero"/></svg>